# xmcd
#
# Track frame offsets: 
#        150
#        17362
#        37193
#        53886
#        82712
#        110851
#        127526
#        144277
#        174462
#        197495
#        214164
#        243405
#        263232
#        284357
#        305995
#
# Disc length: 4417 seconds
#
# Revision: 0
# Processed by: cddbd v1.5.2PL0 Copyright (c) Steve Scherf et al.
# Submitted via: ExactAudioCopy v0.95b4
#
DISCID=cf113f0f
DTITLE=Various Artist - DJ Night Train - Trance Way (Promo)
DYEAR=2008
DGENRE=Trance
TTITLE0=Lange feat. Sarah Howells/Out Of The Sky (Aly and Fila Remix)
TTITLE1=Armin van Buuren feat. Sharon Den Adel/In and Out Of Love (The B
TTITLE1=lizzard Remix)
TTITLE2=Adam Stodtko vs. Sundriver/Monique (Redstar vs. Evbointh Remix
TTITLE2=)
TTITLE3=Kandi and Neumann/Let Go (Original Mix)
TTITLE4=Adam Szabo/Altra (7 Skies and Static Blue Remix)
TTITLE5=Signalrunners feat. Julie Thompson/These Shoulders (Oliver Smi
TTITLE5=th Mix)
TTITLE6=Temple One/Aurora (Original Mix)
TTITLE7=Sassot and Lost Witness/Sin Mas (Chapter XJ Remix)
TTITLE8=Steve Anderson/Neve (Original Mix)
TTITLE9=A.M.R./As Time Goes By (Original Mix)
TTITLE10=Oceanlab/Miracle (Above and Beyond Club Mix)
TTITLE11=Filo and Peri feat. Eric Lumiere/Shine On (Activa Remix)
TTITLE12=Simon Patterson/Us (Original Mix)
TTITLE13=Midway/Monkey Forest (Jonas Stenberg Remix)
TTITLE14=Masters and Nickson feat. Justine Suissa/Out There (5th Dimensi
TTITLE14=on) (Daniel Kandi Bangin' Mix)
EXTD=
EXTT0=
EXTT1=
EXTT2=
EXTT3=
EXTT4=
EXTT5=
EXTT6=
EXTT7=
EXTT8=
EXTT9=
EXTT10=
EXTT11=
EXTT12=
EXTT13=
EXTT14=
PLAYORDER=
